#N canvas 706 268 950 649 12;
#X obj 238 330 dac~;
#X obj 136 107 osc~;
#X floatatom 144 62 5 0 0 0 - - - 0;
#X obj 379 117 osc~;
#X floatatom 387 72 5 0 0 0 - - - 0;
#X obj 186 193 *~;
#X obj 367 195 *~;
#X floatatom 247 156 5 0 0 0 - - - 0;
#X obj 563 95 loadbang;
#X obj 569 163 s bang;
#X obj 240 76 r bang;
#X obj 571 129 bng 19 250 50 0 empty empty empty 0 -10 0 12 #fcfcfc #000000 #000000;
#X msg 274 114 0.1;
#X connect 1 0 5 0;
#X connect 2 0 1 0;
#X connect 3 0 6 0;
#X connect 4 0 3 0;
#X connect 5 0 0 0;
#X connect 6 0 0 1;
#X connect 7 0 5 1;
#X connect 7 0 6 1;
#X connect 8 0 11 0;
#X connect 10 0 12 0;
#X connect 11 0 9 0;
#X connect 12 0 7 0;
